<mxfile host="65bd71144e">
    <diagram id="SK7UVWmZvRvvVLLvdijm" name="Page-1">
        <mxGraphModel dx="1086" dy="1775" grid="1" gridSize="10" guides="1" tooltips="1" connect="1" arrows="1" fold="1" page="1" pageScale="1" pageWidth="827" pageHeight="1169" math="0" shadow="0">
            <root>
                <mxCell id="0"/>
                <mxCell id="1" parent="0"/>
                <mxCell id="17" value="" style="edgeStyle=none;html=1;" parent="1" source="2" target="5" edge="1">
                    <mxGeometry relative="1" as="geometry"/>
                </mxCell>
                <mxCell id="2" value="return" style="shape=parallelogram;html=1;strokeWidth=2;perimeter=parallelogramPerimeter;whiteSpace=wrap;rounded=1;arcSize=12;size=0.23;" parent="1" vertex="1">
                    <mxGeometry x="315" y="650" width="100" height="60" as="geometry"/>
                </mxCell>
                <mxCell id="7" value="" style="edgeStyle=none;html=1;" parent="1" source="3" target="4" edge="1">
                    <mxGeometry relative="1" as="geometry"/>
                </mxCell>
                <mxCell id="3" value="Start" style="rounded=1;whiteSpace=wrap;html=1;absoluteArcSize=1;arcSize=100;strokeWidth=2;" parent="1" vertex="1">
                    <mxGeometry x="320" y="-290" width="90" height="50" as="geometry"/>
                </mxCell>
                <mxCell id="9" value="" style="edgeStyle=none;html=1;" parent="1" source="4" target="6" edge="1">
                    <mxGeometry relative="1" as="geometry"/>
                </mxCell>
                <mxCell id="4" value="if &lt;br&gt;(index == 9)" style="strokeWidth=2;html=1;shape=mxgraph.flowchart.decision;whiteSpace=wrap;" parent="1" vertex="1">
                    <mxGeometry x="260" y="-190" width="210" height="180" as="geometry"/>
                </mxCell>
                <mxCell id="5" value="End" style="rounded=1;whiteSpace=wrap;html=1;absoluteArcSize=1;arcSize=100;strokeWidth=2;" parent="1" vertex="1">
                    <mxGeometry x="320" y="760" width="90" height="50" as="geometry"/>
                </mxCell>
                <mxCell id="11" value="" style="edgeStyle=none;html=1;" parent="1" source="6" target="10" edge="1">
                    <mxGeometry relative="1" as="geometry"/>
                </mxCell>
                <mxCell id="6" value="numberOfProcess++;" style="rounded=1;whiteSpace=wrap;html=1;absoluteArcSize=1;arcSize=21;strokeWidth=2;" parent="1" vertex="1">
                    <mxGeometry x="300" y="50" width="130" height="50" as="geometry"/>
                </mxCell>
                <mxCell id="15" value="" style="edgeStyle=none;html=1;" parent="1" source="8" target="14" edge="1">
                    <mxGeometry relative="1" as="geometry"/>
                </mxCell>
                <mxCell id="8" value="numberOfMagicSquares++;" style="rounded=1;whiteSpace=wrap;html=1;absoluteArcSize=1;arcSize=21;strokeWidth=2;" parent="1" vertex="1">
                    <mxGeometry x="290" y="400" width="150" height="70" as="geometry"/>
                </mxCell>
                <mxCell id="13" value="" style="edgeStyle=none;html=1;" parent="1" source="10" target="8" edge="1">
                    <mxGeometry relative="1" as="geometry"/>
                </mxCell>
                <mxCell id="10" value="if &lt;br&gt;(isMagic(square))" style="strokeWidth=2;html=1;shape=mxgraph.flowchart.decision;whiteSpace=wrap;" parent="1" vertex="1">
                    <mxGeometry x="260" y="155" width="210" height="180" as="geometry"/>
                </mxCell>
                <mxCell id="16" value="" style="edgeStyle=none;html=1;" parent="1" source="14" target="2" edge="1">
                    <mxGeometry relative="1" as="geometry"/>
                </mxCell>
                <mxCell id="14" value="printMagicSquare(square);" style="rounded=1;whiteSpace=wrap;html=1;absoluteArcSize=1;arcSize=21;strokeWidth=2;" parent="1" vertex="1">
                    <mxGeometry x="290" y="530" width="150" height="70" as="geometry"/>
                </mxCell>
                <mxCell id="18" value="&lt;div&gt;genSquare(final int[] square, final int[] currentSquare,&lt;/div&gt;&lt;div&gt;&amp;nbsp; &amp;nbsp; &amp;nbsp; &amp;nbsp; &amp;nbsp; &amp;nbsp; final int index)&lt;/div&gt;" style="text;html=1;align=center;verticalAlign=middle;resizable=0;points=[];autosize=1;strokeColor=none;fillColor=none;" parent="1" vertex="1">
                    <mxGeometry x="205" y="-340" width="310" height="40" as="geometry"/>
                </mxCell>
                <mxCell id="19" value="" style="edgeStyle=none;html=1;" edge="1" parent="1" source="20" target="25">
                    <mxGeometry relative="1" as="geometry"/>
                </mxCell>
                <mxCell id="20" value="return" style="shape=parallelogram;html=1;strokeWidth=2;perimeter=parallelogramPerimeter;whiteSpace=wrap;rounded=1;arcSize=12;size=0.23;" vertex="1" parent="1">
                    <mxGeometry x="880" y="660" width="100" height="60" as="geometry"/>
                </mxCell>
                <mxCell id="21" value="" style="edgeStyle=none;html=1;" edge="1" parent="1" source="22" target="24">
                    <mxGeometry relative="1" as="geometry"/>
                </mxCell>
                <mxCell id="22" value="Start" style="rounded=1;whiteSpace=wrap;html=1;absoluteArcSize=1;arcSize=100;strokeWidth=2;" vertex="1" parent="1">
                    <mxGeometry x="885" y="-280" width="90" height="50" as="geometry"/>
                </mxCell>
                <mxCell id="23" value="" style="edgeStyle=none;html=1;" edge="1" parent="1" source="24" target="27">
                    <mxGeometry relative="1" as="geometry"/>
                </mxCell>
                <mxCell id="24" value="if &lt;br&gt;(index == 9)" style="strokeWidth=2;html=1;shape=mxgraph.flowchart.decision;whiteSpace=wrap;" vertex="1" parent="1">
                    <mxGeometry x="825" y="-180" width="210" height="180" as="geometry"/>
                </mxCell>
                <mxCell id="25" value="End" style="rounded=1;whiteSpace=wrap;html=1;absoluteArcSize=1;arcSize=100;strokeWidth=2;" vertex="1" parent="1">
                    <mxGeometry x="885" y="770" width="90" height="50" as="geometry"/>
                </mxCell>
                <mxCell id="26" value="" style="edgeStyle=none;html=1;" edge="1" parent="1" source="27" target="31">
                    <mxGeometry relative="1" as="geometry"/>
                </mxCell>
                <mxCell id="27" value="numberOfProcess++;" style="rounded=1;whiteSpace=wrap;html=1;absoluteArcSize=1;arcSize=21;strokeWidth=2;" vertex="1" parent="1">
                    <mxGeometry x="865" y="60" width="130" height="50" as="geometry"/>
                </mxCell>
                <mxCell id="28" value="" style="edgeStyle=none;html=1;" edge="1" parent="1" source="29" target="33">
                    <mxGeometry relative="1" as="geometry"/>
                </mxCell>
                <mxCell id="29" value="numberOfMagicSquares++;" style="rounded=1;whiteSpace=wrap;html=1;absoluteArcSize=1;arcSize=21;strokeWidth=2;" vertex="1" parent="1">
                    <mxGeometry x="855" y="410" width="150" height="70" as="geometry"/>
                </mxCell>
                <mxCell id="30" value="" style="edgeStyle=none;html=1;" edge="1" parent="1" source="31" target="29">
                    <mxGeometry relative="1" as="geometry"/>
                </mxCell>
                <mxCell id="31" value="if &lt;br&gt;(isMagic(square))" style="strokeWidth=2;html=1;shape=mxgraph.flowchart.decision;whiteSpace=wrap;" vertex="1" parent="1">
                    <mxGeometry x="825" y="165" width="210" height="180" as="geometry"/>
                </mxCell>
                <mxCell id="32" value="" style="edgeStyle=none;html=1;" edge="1" parent="1" source="33" target="20">
                    <mxGeometry relative="1" as="geometry"/>
                </mxCell>
                <mxCell id="33" value="printMagicSquare(square);" style="rounded=1;whiteSpace=wrap;html=1;absoluteArcSize=1;arcSize=21;strokeWidth=2;" vertex="1" parent="1">
                    <mxGeometry x="855" y="540" width="150" height="70" as="geometry"/>
                </mxCell>
                <mxCell id="34" value="&lt;div&gt;genSquare2(final int[] square, final int[] currentSquare,&lt;/div&gt;&lt;div&gt;&amp;nbsp; &amp;nbsp; &amp;nbsp; &amp;nbsp; &amp;nbsp; &amp;nbsp; final int index)&lt;/div&gt;" style="text;html=1;align=center;verticalAlign=middle;resizable=0;points=[];autosize=1;strokeColor=none;fillColor=none;" vertex="1" parent="1">
                    <mxGeometry x="765" y="-330" width="320" height="40" as="geometry"/>
                </mxCell>
            </root>
        </mxGraphModel>
    </diagram>
</mxfile>